<?xml version="1.0" encoding="utf-8"?>
<!-- Generator: Adobe Illustrator 26.2.0, SVG Export Plug-In . SVG Version: 6.00 Build 0)  -->
<svg version="1.1" id="Livello_1" xmlns="http://www.w3.org/2000/svg" xmlns:xlink="http://www.w3.org/1999/xlink" x="0px" y="0px"
	 viewBox="0 0 615.3 500" style="enable-background:new 0 0 615.3 500;" xml:space="preserve">
<style type="text/css">
	.st0{fill:#DC241F;}
	.st1{fill:#0019A8;}
	.st2{enable-background:new    ;}
	.st3{fill:#FFFFFF;}
</style>
<g>
	<path class="st0" d="M436.1,348.5c-54.2,70.7-155.5,84-226.1,29.9c-70.7-54.2-84.1-155.4-29.9-226.1s155.4-84.1,226.1-29.9
		S490.3,277.8,436.1,348.5 M460.1,51.9c-109.6-84-266.5-63.3-350.5,46.3s-63.3,266.5,46.3,350.5s266.5,63.3,350.5-46.3
		S569.7,135.9,460.1,51.9"/>
	
		<rect x="257.1" y="-57.6" transform="matrix(0.6084 -0.7936 0.7936 0.6084 -77.96 342.0541)" class="st1" width="101.1" height="615.3"/>
</g>
<g class="st2">
	<path class="st3" d="M197.9,135.5c-0.1,0.2-0.3,0.2-0.5,0c-3-2.3-5.5-4.1-7.5-5.6c-2-1.5-3.9-2.9-5.6-4.2c-1.8-1.3-3.1-2.3-3.9-2.9
		l-34,44.7c-0.2,0.2-0.3,0.2-0.5,0.1l-6.9-5.3c-0.2-0.1-0.2-0.3-0.1-0.4l34.1-44.8L157,104.7c-0.2-0.2-0.3-0.3-0.1-0.5l5.3-6.9
		c0.2-0.2,0.4-0.3,0.6-0.1l40.5,30.8c0.2,0.1,0.2,0.3,0.1,0.4L197.9,135.5z"/>
	<path class="st3" d="M256.4,168.9l-22.6,29.7c-2.4,3.1-5.3,5.7-8.7,7.6c-3.4,1.9-7,3.2-10.7,3.7c-3.8,0.5-7.5,0.3-11.4-0.7
		c-3.8-1-7.3-2.7-10.4-5.1c-3.1-2.4-5.7-5.3-7.6-8.7c-1.9-3.4-3.2-7-3.7-10.7c-0.5-3.7-0.3-7.5,0.7-11.3c1-3.8,2.6-7.3,5-10.4
		l22.5-29.6c0.2-0.2,0.4-0.3,0.6-0.1l7,5.3c0.2,0.1,0.2,0.3,0.1,0.4l-22.5,29.6c-2.2,2.9-3.5,6.1-3.9,9.6c-0.4,3.5,0,6.9,1.3,10.2
		c1.3,3.3,3.4,6,6.3,8.2c2.9,2.2,6.1,3.5,9.6,3.9c3.5,0.4,6.9,0,10.2-1.4c3.3-1.4,6-3.5,8.2-6.3l22.4-29.5c0.2-0.2,0.4-0.3,0.6-0.1
		l7,5.3C256.5,168.6,256.5,168.7,256.4,168.9z"/>
	<path class="st3" d="M276.9,237.3c-0.7,1.5-1.5,2.8-2.3,3.8c-1.8,2.3-3.9,4.1-6.5,5.3c-2.6,1.2-5.4,1.9-8.3,1.9
		c-4.9,0-9.7-1.8-14.5-5.4c-3.3-2.5-5.8-4.4-7.5-5.7c-1.7-1.3-3.2-2.4-4.6-3.4l-6.3-4.8l39.7-52.2l0.5-0.1l9.4,7.1l3.1,2.4
		c3.5,2.7,6.3,5.4,8.1,8c1.9,2.6,2.7,5.7,2.5,9.3c-0.2,3.3-1.3,6.3-3.3,9c-1.1,1.4-2.4,2.6-4,3.5c-2.7,1.5-5,2.1-7.1,2
		c-0.4,0-0.6,0-0.7,0.1c-0.1,0.1,0,0.2,0.1,0.5c1.9,2.4,3,5.4,3.3,9C278.8,231.1,278.3,234.4,276.9,237.3z M268.2,229.3
		c0.7-2.2,0.3-4.5-1.3-6.9c-1.6-2.4-3.7-4.8-6.5-7.1l-7.1-5.4l-13.1,17.2c1.2,0.9,2.3,1.7,3.3,2.5c1,0.8,2.4,1.8,4.2,3.1
		c1.8,1.3,3.1,2.3,3.9,2.9c3.6,2.3,6.9,2.9,9.8,1.8c1.8-0.7,3.3-1.8,4.3-3.2C266.6,233,267.5,231.4,268.2,229.3z M278.9,204.3
		c1.4-3.6-0.5-7.4-6-11.5c-0.9-0.7-1.7-1.3-2.3-1.7s-1.2-0.9-2-1.4l-9.8,12.8l5,3.8c2.3,1.4,4,2.4,5.2,2.9c1.2,0.5,2.6,0.5,4.3,0.1
		c1.8-0.5,3.2-1.4,4.3-2.8C278,206.2,278.4,205.4,278.9,204.3z"/>
	<path class="st3" d="M357.4,245.7l-22.6,29.7c-2.4,3.1-5.3,5.7-8.7,7.6c-3.4,1.9-7,3.2-10.7,3.7c-3.8,0.5-7.5,0.3-11.4-0.7
		c-3.8-1-7.3-2.7-10.4-5.1s-5.7-5.3-7.6-8.7s-3.2-7-3.7-10.7c-0.5-3.7-0.3-7.5,0.7-11.3c1-3.8,2.6-7.3,5-10.4l22.5-29.6
		c0.2-0.2,0.4-0.3,0.6-0.1l7,5.3c0.2,0.1,0.2,0.3,0.1,0.4l-22.5,29.6c-2.2,2.9-3.5,6.1-3.9,9.6c-0.4,3.5,0,6.9,1.3,10.2
		c1.3,3.3,3.4,6,6.3,8.2c2.9,2.2,6.1,3.5,9.6,3.9c3.5,0.4,6.9,0,10.2-1.4c3.3-1.4,6-3.5,8.2-6.3l22.4-29.5c0.2-0.2,0.4-0.3,0.6-0.1
		l7,5.3C357.5,245.4,357.6,245.6,357.4,245.7z"/>
	<path class="st3" d="M360.6,330.2c-0.2,0.2-0.3,0.2-0.5,0.1l-31.8-24.2c-0.2-0.1-0.2-0.3-0.1-0.4l39.6-52.1c0.1-0.2,0.3-0.1,0.5,0
		l6.9,5.3c0.2,0.1,0.2,0.3,0.1,0.4l-34.1,44.8l24.6,18.7c0.2,0.1,0.2,0.3,0,0.4L360.6,330.2z"/>
	<path class="st3" d="M412.2,369.3c-0.2,0.3-0.3,0.3-0.5,0.3l-7.5-5.7c-0.2-0.2-0.3-0.3-0.3-0.5l4.5-16.2l-23.2-17.6l-14.4,8.6
		c-0.1,0.1-0.3,0-0.5-0.1l-7.5-5.7c-0.1-0.1-0.1-0.3,0.1-0.5l60.3-35.9c0.1-0.1,0.2-0.1,0.3-0.1c0.2,0,0.3,0,0.3,0.1l6.8,5.1
		c0.2,0.1,0.2,0.4,0.2,0.7L412.2,369.3z M411.1,337.5l7.7-27.9L394,324.5L411.1,337.5z"/>
	<path class="st3" d="M458.8,404.9c-0.2,0.2-0.5,0.1-1-0.2l-8.4-6.4c-0.1-0.1,0-11.7,0.4-34.9l-7.2-5.4L426,380l-0.5,0.1l-7.1-5.4
		l0.2-0.6l39.6-52l0.6,0.4l9.4,7.1c3.8,2.9,6.9,5.6,9.3,8.1c2.4,2.5,4.1,5.4,5,8.7c1,3.2,0.7,6.8-0.8,10.8c-0.7,1.8-1.6,3.4-2.7,4.8
		c-1.2,1.6-2.7,3-4.4,4.2c-1.7,1.2-3.5,2-5.4,2.4c-1.5,0.4-2.9,0.5-4.3,0.3s-3-0.5-5-1l-0.3,0.3c0,1.5,0,3.9,0,7.2
		c0,3.3-0.1,6.8-0.3,10.3c-0.1,3.5-0.2,6.9-0.3,9.9C458.9,398.8,458.9,401.9,458.8,404.9z M471.5,353.7c0.7-1.7,1-3.3,0.7-4.9
		s-0.9-3-1.8-4.3s-2-2.5-3.2-3.6c-1.2-1.1-2.8-2.4-4.6-3.8l-2.1-1.6l-0.5,0l-11.4,14.9c1.1,0.9,2.1,1.6,2.9,2.2
		c0.8,0.6,1.6,1.3,2.5,2c1.9,1.5,3.8,2.6,5.6,3.4c1.8,0.8,3.6,1,5.3,0.7c2.4-0.4,4.3-1.5,5.7-3.4
		C470.9,354.9,471.2,354.4,471.5,353.7z"/>
</g>
</svg>
