<?xml version="1.0" encoding="utf-8"?>
<!-- Generator: Adobe Illustrator 26.2.0, SVG Export Plug-In . SVG Version: 6.00 Build 0)  -->
<svg version="1.1" id="Livello_1" xmlns="http://www.w3.org/2000/svg" xmlns:xlink="http://www.w3.org/1999/xlink" x="0px" y="0px"
	 viewBox="0 0 615.3 500" style="enable-background:new 0 0 615.3 500;" xml:space="preserve">
<style type="text/css">
	.st0{fill:#DC241F;}
	.st1{fill:#0019A8;}
	.st2{fill:#FFFFFF;}
	.st3{font-family:'P22JohnstonUnderground';}
	.st4{font-size:100px;}
</style>
<g>
	<path class="st0" d="M436.1,348.5c-54.2,70.7-155.5,84-226.1,29.9c-70.7-54.2-84.1-155.4-29.9-226.1s155.4-84.1,226.1-29.9
		S490.3,277.8,436.1,348.5 M460.1,51.9c-109.6-84-266.5-63.3-350.5,46.3s-63.3,266.5,46.3,350.5s266.5,63.3,350.5-46.3
		S569.7,135.9,460.1,51.9"/>
	
		<rect x="257.1" y="-57.6" transform="matrix(0.6084 -0.7936 0.7936 0.6084 -77.9763 342.0478)" class="st1" width="101.1" height="615.3"/>
</g>
<text transform="matrix(0.7959 0.6054 -0.6054 0.7959 120.8095 148.325)" class="st2 st3 st4">TUBULAR</text>
</svg>
