<?xml version="1.0" encoding="utf-8"?>
<!-- Generator: Adobe Illustrator 26.2.0, SVG Export Plug-In . SVG Version: 6.00 Build 0)  -->
<svg version="1.1" id="Layer_1" xmlns="http://www.w3.org/2000/svg" xmlns:xlink="http://www.w3.org/1999/xlink" x="0px" y="0px"
	 viewBox="0 0 64 64" style="enable-background:new 0 0 64 64;" xml:space="preserve">
<style type="text/css">
	.st0{fill:none;stroke:#000000;stroke-width:3;stroke-miterlimit:10;}
</style>
<circle class="st0" cx="32" cy="32" r="28"/>
<g>
	<path d="M43.8,22.1c0,2.2-0.8,4.3-2.5,6.3c-1.6,1.5-3.2,3-4.8,4.5c-1.7,1.8-2.5,3.6-2.5,5.5v4.5h-5.6v-4.1c0-2.7,0.9-5.1,2.6-7.3
		c0.3-0.4,1.9-2,4.8-4.6c1.7-1.6,2.6-3.1,2.6-4.4c0-1.7-0.5-2.9-1.5-3.8c-1-0.8-2.4-1.3-4.2-1.3c-1.6,0-3.3,0.4-5.1,1.1
		c-1.8,0.7-3.6,1.8-5.3,3.2v-5.8c1.9-1.3,3.7-2.2,5.6-2.8c1.8-0.6,3.6-0.9,5.2-0.9c3.2,0,5.8,1,7.8,2.8S43.8,19.2,43.8,22.1z
		 M35.5,50l-4,4.1l-4.1-4l4.1-4L35.5,50z"/>
</g>
</svg>
