<?xml version="1.0" standalone="no"?>
<!DOCTYPE svg PUBLIC "-//W3C//DTD SVG 20010904//EN"
 "http://www.w3.org/TR/2001/REC-SVG-20010904/DTD/svg10.dtd">
<svg version="1.0" xmlns="http://www.w3.org/2000/svg"
 width="615.000000pt" height="615.000000pt" viewBox="0 0 615.000000 615.000000"
 preserveAspectRatio="xMidYMid meet">
<metadata>
Created by potrace 1.14, written by Peter Selinger 2001-2017
</metadata>
<g transform="translate(0.000000,615.000000) scale(0.100000,-0.100000)"
fill="#000000" stroke="none">
<path d="M2885 5574 c-16 -2 -70 -9 -120 -15 -438 -53 -906 -250 -1245 -524
l-77 -62 -247 189 c-135 104 -250 188 -255 186 -12 -4 -611 -785 -611 -796 0
-5 110 -93 245 -196 135 -103 245 -191 245 -196 0 -4 -16 -43 -36 -86 -87
-192 -160 -463 -190 -704 -22 -184 -15 -524 15 -693 96 -540 332 -1000 700
-1367 317 -316 723 -549 1144 -656 217 -55 298 -65 567 -71 227 -5 272 -3 403
16 172 25 370 74 512 126 235 86 501 236 694 388 50 39 88 64 95 59 7 -4 117
-87 244 -185 128 -98 237 -177 242 -175 11 4 610 785 610 796 0 4 -110 92
-245 196 l-245 187 21 41 c78 154 171 466 205 693 23 149 26 521 5 665 -106
752 -497 1375 -1121 1786 -298 196 -623 318 -1014 381 -86 13 -476 26 -541 17z
m317 -894 c1018 -84 1696 -1055 1426 -2043 -14 -49 -26 -77 -34 -75 -7 2 -552
417 -1213 923 l-1200 920 27 22 c45 38 232 130 339 166 159 56 321 86 513 95
14 1 78 -3 142 -8z m-1312 -191 c251 -190 251 -191 206 -228 -12 -10 -32 0
-115 63 l-100 76 -68 -88 c-37 -48 -124 -163 -193 -255 -69 -91 -127 -166
-130 -166 -3 -1 -21 11 -39 27 l-33 27 191 250 c104 138 190 255 190 260 0 6
-44 43 -99 84 l-99 74 22 28 c11 16 22 29 24 29 2 0 112 -82 243 -181z m374
-301 c-1 -8 -64 -98 -142 -200 -77 -102 -148 -200 -158 -219 -28 -54 -24 -119
9 -163 61 -79 160 -116 224 -83 42 22 109 99 248 285 66 89 122 161 125 161 3
0 20 -12 39 -27 l33 -28 -132 -175 c-206 -271 -250 -308 -356 -309 -101 0
-243 99 -279 195 -22 57 -16 137 14 195 12 23 88 129 169 236 l147 193 30 -24
c16 -13 30 -30 29 -37z m651 -479 c169 -129 212 -193 186 -279 -25 -83 -95
-136 -168 -126 -24 3 -43 3 -43 0 0 -2 8 -17 17 -31 27 -40 24 -128 -6 -176
-36 -59 -84 -90 -146 -95 -77 -6 -119 14 -267 125 l-127 96 29 40 c168 229
407 534 414 529 6 -3 55 -40 111 -83z m-70 -1094 c616 -472 1124 -861 1128
-865 11 -10 -85 -70 -198 -125 -111 -53 -244 -98 -372 -125 -128 -28 -383 -37
-519 -20 -811 101 -1415 787 -1414 1605 0 147 39 381 80 491 l10 26 83 -65
c45 -35 586 -450 1202 -922z m550 724 c4 -5 -61 -98 -143 -207 -82 -109 -157
-219 -167 -244 -26 -70 -15 -112 45 -170 81 -78 160 -87 233 -27 20 17 103
117 183 222 80 106 149 193 152 194 4 1 22 -10 39 -25 l33 -27 -141 -185
c-170 -224 -190 -246 -254 -276 -70 -33 -127 -31 -203 6 -165 83 -225 221
-155 359 16 31 93 140 172 243 l143 188 29 -21 c16 -11 31 -24 34 -30z m579
-438 c19 -21 18 -22 -145 -236 -214 -282 -223 -294 -218 -298 2 -2 63 -48 134
-102 72 -54 133 -101 137 -104 4 -4 -3 -20 -16 -36 l-23 -29 -157 119 c-87 66
-167 127 -178 136 -19 15 -14 23 197 302 232 304 224 298 269 248z m607 -458
c21 -16 37 -32 36 -38 -2 -5 -50 -171 -108 -367 -57 -197 -108 -358 -114 -358
-5 1 -23 12 -40 25 l-29 24 27 84 c15 46 27 90 26 98 0 8 -58 58 -129 111
l-128 97 -83 -54 -83 -53 -37 26 c-21 15 -35 30 -31 34 13 13 637 398 645 398
5 0 26 -12 48 -27z m466 -356 c129 -99 173 -156 173 -225 0 -118 -109 -222
-215 -205 l-34 5 11 -38 c5 -21 7 -59 4 -84 -12 -91 -48 -270 -55 -270 -3 0
-21 13 -39 28 l-32 27 25 135 c15 77 23 149 20 168 -7 39 -46 85 -108 130
l-46 33 -91 -121 c-50 -66 -94 -120 -98 -120 -14 1 -64 48 -61 58 7 17 424
562 431 562 3 0 55 -37 115 -83z"/>
<path d="M2762 3603 c-32 -43 -61 -83 -65 -89 -4 -7 23 -35 66 -67 110 -85
154 -95 206 -52 43 37 57 85 36 129 -14 29 -159 156 -179 156 -3 0 -31 -35
-64 -77z"/>
<path d="M2560 3338 c-41 -56 -76 -104 -78 -107 -4 -12 167 -132 202 -142 100
-28 202 110 147 197 -18 30 -171 154 -188 154 -4 -1 -42 -46 -83 -102z"/>
<path d="M4360 2271 c-85 -53 -155 -102 -157 -108 -5 -13 198 -166 207 -156
10 10 113 354 108 359 -2 2 -73 -41 -158 -95z"/>
<path d="M4876 1955 c-43 -58 -77 -107 -75 -108 143 -110 166 -122 215 -112
41 7 101 72 109 118 10 50 -14 87 -94 152 -37 30 -70 55 -72 55 -2 0 -40 -48
-83 -105z"/>
</g>
</svg>
